{"title":"GolMaal (1979) Hindi DvD RiP Xvid 1.36GB@Mastitorrents","uid":5852223,"size":1460451328,"categoryP":"video","categoryS":"movies","magnet":"?xt=urn:btih:cf9e0fab91111d572c1ffd8f32f8a57f687d56a8&amp;dn=GolMaal+%281979%29+Hindi+DvD+RiP+Xvid+1.36GB%40Mastitorrents&amp;tr=udp%3A%2F%2Ftracker.openbittorrent.com%3A80&amp;tr=udp%3A%2F%2Fopen.demonii.com%3A1337&amp;tr=udp%3A%2F%2Ftracker.coppersurfer.tk%3A6969&amp;tr=udp%3A%2F%2Fexodus.desync.com%3A6969","seeders":0,"leechers":0,"uploader":"amanrulz","files":1,"time":1285433615,"description":"mastitorrents.com\n &lt;a href=&quot;\nhttp://mastitorrents.com/forums/index.php&quot; rel=&quot;nofollow&quot; target=&quot;_NEW&quot;&gt;\nhttp://mastitorrents.com/forums/index.php&lt;/a&gt;\n\nGeneral\nRipper : Rahul\nComplete name : GolMaal ( 1979 }.avi\nFormat : AVI\nFormat/Info : Audio Video Interleave\nFile size : 1.36 GiB\nDuration : 2h 23mn\nOverall bit rate : 1 353 Kbps\nWriting application : VirtualDubMod 1.5.10.3 |\n\nVideo\nID : 0\nFormat : MPEG-4 Visual\nFormat profile : Advanced Simple@L5\nFormat settings, BVOP : Yes\nFormat settings, QPel : No\nFormat settings, GMC : No warppoints\nFormat settings, Matrix : Default (MPEG)\nMuxing mode : Packed bitstream\nCodec ID : XVID\nCodec ID/Hint : XviD\nDuration : 2h 23mn\nBit rate : 1 120 Kbps\nWidth : 608 pixels\nHeight : 432 pixels\nDisplay aspect ratio : 1.407\nFrame rate : 23.976 fps\nColor space : YUV\nChroma subsampling : 4:2:0\nBit depth : 8 bits\nScan type : Progressive\nBits/(Pixel*Frame) : 0.178\nStream size : 1.13 GiB (83%)\n\n\nAudio\nID : 1\nFormat : AC-3\nFormat/Info : Audio Coding 3\nMode extension : CM (complete main)\nCodec ID : 2000\nDuration : 2h 23mn\nBit rate mode : Constant\nBit rate : 224 Kbps\nChannel(s) : 2 channels\nChannel positions : Front: L R\nSampling rate : 48.0 KHz\nBit depth : 16 bits\nStream size : 231 MiB (17%)\nAlignment : Split accross interleaves\nInterleave, duration : 42 ms (1.00 video frame)\nInterleave, preload duration : 500 ms","torrent":{"xt":"urn:btih:cf9e0fab91111d572c1ffd8f32f8a57f687d56a8","amp;dn":"GolMaal+%281979%29+Hindi+DvD+RiP+Xvid+1.36GB%40Mastitorrents","amp;tr":["udp%3A%2F%2Ftracker.openbittorrent.com%3A80","udp%3A%2F%2Fopen.demonii.com%3A1337","udp%3A%2F%2Ftracker.coppersurfer.tk%3A6969","udp%3A%2F%2Fexodus.desync.com%3A6969"],"infoHash":"cf9e0fab91111d572c1ffd8f32f8a57f687d56a8","infoHashBuffer":{"type":"Buffer","data":[207,158,15,171,145,17,29,87,44,31,253,143,50,248,165,127,104,125,86,168]},"announce":[],"urlList":[]}}